<svg width="119" height="29" viewBox="0 0 119 29" fill="none" xmlns="http://www.w3.org/2000/svg">
<g opacity="1">
<path d="M0.925293 26.8879C1.94018 26.822 2.67169 26.677 3.11982 26.4529C3.91064 26.0444 4.30605 25.2997 4.30605 24.2189V4.25066C4.30605 3.20941 3.93041 2.48449 3.17913 2.0759C2.74418 1.83866 1.9929 1.6739 0.925293 1.58164V0.553574H13.3016C18.297 0.553574 22.1061 1.88479 24.729 4.54722C27.1146 6.9724 28.3074 10.2279 28.3074 14.3138C28.3074 17.978 27.108 21.082 24.7092 23.6258C22.0072 26.4859 18.3431 27.916 13.7168 27.916H0.925293V26.8879ZM10.8501 24.1793C10.8896 25.0097 11.0412 25.6094 11.3048 25.9784C11.5816 26.3475 12.1615 26.532 13.0446 26.532C15.4434 26.532 17.4139 25.6885 18.956 24.0014C20.4981 22.3011 21.2691 19.0456 21.2691 14.2348C21.2691 11.3746 20.854 8.9165 20.0236 6.86037C18.6792 3.5521 16.4122 1.89797 13.2225 1.89797C12.1681 1.89797 11.4827 2.12203 11.1664 2.57017C10.9555 2.86013 10.8501 3.4203 10.8501 4.25066V24.1793Z" fill="white"/>
<path d="M30.5217 18.6436C30.5217 15.823 31.3851 13.4703 33.1117 11.5855C34.8515 9.70073 37.0328 8.75834 39.6557 8.75834C42.3313 8.75834 44.5193 9.7205 46.2195 11.6448C47.933 13.5692 48.7897 15.9021 48.7897 18.6436C48.7897 21.3456 47.9462 23.6719 46.2591 25.6226C44.572 27.5601 42.3709 28.5288 39.6557 28.5288C37.0196 28.5288 34.8383 27.5865 33.1117 25.7017C31.3851 23.8037 30.5217 21.451 30.5217 18.6436ZM36.4727 18.6436C36.4727 21.4774 36.6176 23.461 36.9076 24.5945C37.3689 26.3475 38.285 27.224 39.6557 27.224C40.9606 27.224 41.8173 26.5518 42.2259 25.2074C42.6345 23.863 42.8388 21.6751 42.8388 18.6436C42.8388 15.6253 42.6213 13.4439 42.1863 12.0996C41.7646 10.742 40.9276 10.0632 39.6755 10.0632C38.3047 10.0632 37.3887 10.9397 36.9274 12.6927C36.6242 13.8657 36.4727 15.8494 36.4727 18.6436Z" fill="white"/>
<path d="M50.6086 26.9472C51.3862 26.8549 51.9266 26.6704 52.2298 26.3936C52.5329 26.1168 52.6977 25.583 52.724 24.7922L52.7636 23.606V12.5938C52.7636 11.7503 52.6186 11.1769 52.3286 10.8738C52.0386 10.5706 51.4653 10.3663 50.6086 10.2609V9.27237H58.2993V12.4554C59.156 11.3351 60.0062 10.4454 60.8497 9.7864C61.6932 9.12739 62.6686 8.79788 63.7757 8.79788C64.6061 8.79788 65.3508 9.06807 66.0098 9.60847C66.682 10.1357 67.0181 10.9133 67.0181 11.9414C67.0181 12.7322 66.7809 13.3846 66.3064 13.8987C65.845 14.4127 65.2388 14.6697 64.4875 14.6697C63.6308 14.6697 62.8861 14.2677 62.2534 13.4637C61.6339 12.6597 61.199 12.2577 60.9486 12.2577C60.4082 12.2577 59.8612 12.5938 59.3076 13.266C58.7672 13.925 58.497 14.874 58.497 16.113V23.7642C58.497 25.1085 58.6881 25.9521 59.0704 26.2948C59.4658 26.6243 60.2434 26.8418 61.4033 26.9472V27.916H50.6086V26.9472Z" fill="white"/>
<path d="M68.4218 26.9472C69.2522 26.8813 69.8453 26.6968 70.2011 26.3936C70.5702 26.0905 70.7547 25.4578 70.7547 24.4957V11.3285H68.4218V9.54916H70.7547V8.0466C70.7547 6.16181 71.0513 4.61312 71.6444 3.40053C72.7647 1.13351 74.834 0 77.8523 0C79.4603 0 80.8179 0.36905 81.9251 1.10715C83.0454 1.83207 83.6056 2.79423 83.6056 3.99364C83.6056 4.74492 83.3683 5.35122 82.8938 5.81253C82.4325 6.27384 81.813 6.5045 81.0354 6.5045C80.3896 6.5045 79.836 6.29361 79.3747 5.87184C78.9134 5.45007 78.6827 4.94263 78.6827 4.34951C78.6827 3.90138 78.8277 3.43348 79.1177 2.94581C79.4208 2.44495 79.5724 2.14181 79.5724 2.03636C79.5724 1.70685 79.4538 1.49597 79.2165 1.40371C78.9793 1.31144 78.7222 1.26531 78.4454 1.26531C77.7864 1.26531 77.279 1.45643 76.9231 1.83866C76.5673 2.22089 76.3893 3.04466 76.3893 4.30997V9.54916H79.9085V11.3285H76.3893V23.7642C76.3893 25.1613 76.587 26.018 76.9824 26.3343C77.391 26.6506 78.2873 26.8549 79.6712 26.9472V27.916H68.4218V26.9472Z" fill="white"/>
<path d="M89.6356 9.27237V23.0129C89.6356 23.8301 89.7344 24.4298 89.9321 24.812C90.2748 25.4842 90.9536 25.8203 91.9685 25.8203C92.6143 25.8203 93.247 25.616 93.8664 25.2074C94.2223 24.9833 94.6704 24.6077 95.2108 24.0805V12.5938C95.2108 11.7503 95.0395 11.1637 94.6968 10.8342C94.3673 10.4916 93.6951 10.3004 92.6802 10.2609V9.27237H100.747V23.8432C100.747 24.6868 100.905 25.2733 101.221 25.6028C101.537 25.9191 102.157 26.1168 103.08 26.1959V27.1251C100.575 27.3624 98.9936 27.5403 98.3346 27.6589C97.6888 27.7644 96.6475 28.0412 95.2108 28.4893V25.8203C94.2487 26.6506 93.4513 27.2372 92.8186 27.5799C91.7115 28.1862 90.5582 28.4893 89.3588 28.4893C88.0539 28.4893 86.8347 28.0741 85.7012 27.2438C84.5809 26.4134 84.0207 24.9372 84.0207 22.8152V12.5938C84.0207 11.7371 83.8823 11.1769 83.6056 10.9133C83.3288 10.6497 82.795 10.4322 82.0041 10.2609V9.27237H89.6356Z" fill="white"/>
<path d="M104.918 21.7871H106.045C106.44 23.7246 107.179 25.0954 108.259 25.8994C109.34 26.6902 110.447 27.0856 111.581 27.0856C112.622 27.0856 113.387 26.8549 113.874 26.3936C114.362 25.9191 114.606 25.2997 114.606 24.5352C114.606 23.8103 114.342 23.1908 113.815 22.6768C113.525 22.4 113.057 22.1034 112.411 21.7871L109.406 20.3241C107.824 19.5464 106.691 18.7029 106.006 17.7935C105.307 16.884 104.958 15.8098 104.958 14.5709C104.958 13.0024 105.505 11.6514 106.599 10.5179C107.693 9.37122 109.222 8.79788 111.185 8.79788C112.042 8.79788 112.952 8.94286 113.914 9.23283C114.876 9.50961 115.476 9.64801 115.713 9.64801C116.042 9.64801 116.273 9.58211 116.405 9.4503C116.55 9.30532 116.668 9.10761 116.761 8.85719H117.65V14.7093H116.622C116.24 13.3385 115.614 12.2379 114.744 11.4076C113.874 10.5772 112.859 10.162 111.699 10.162C110.803 10.162 110.131 10.4125 109.683 10.9133C109.248 11.4142 109.03 11.9546 109.03 12.5345C109.03 13.009 109.228 13.4835 109.624 13.958C110.006 14.4457 110.731 14.9465 111.798 15.4605L114.013 16.5281C115.383 17.1872 116.385 17.8264 117.018 18.4459C118.072 19.5003 118.599 20.7986 118.599 22.3407C118.599 23.8432 118.052 25.2469 116.958 26.5518C115.878 27.8435 114.25 28.4893 112.075 28.4893C111.535 28.4893 110.988 28.43 110.434 28.3114C109.894 28.2059 109.222 28.0148 108.418 27.738L107.726 27.5008C107.475 27.4085 107.317 27.3558 107.251 27.3426C107.198 27.3294 107.126 27.3228 107.034 27.3228C106.81 27.3228 106.612 27.4151 106.44 27.5996C106.282 27.771 106.098 28.0675 105.887 28.4893H104.918V21.7871Z" fill="white"/>
</g>
</svg>
