<svg width="147" height="37" viewBox="0 0 147 37" fill="none" xmlns="http://www.w3.org/2000/svg">
<g opacity="1">
<path d="M48.4045 22.4943V10.3205C48.4045 9.60778 48.3475 8.14901 48.2334 5.94423L49.7587 11.2899L53.3795 22.4943H56.3731L59.9939 11.2899C60.0477 11.122 60.1065 10.9326 60.1701 10.7217L60.2488 10.4582C60.5594 9.4088 60.9733 7.90414 61.4906 5.94423C61.4051 8.03497 61.36 9.21814 61.3552 9.49374C61.3505 9.76933 61.3481 10.0449 61.3481 10.3205V22.4943H65.0829V2.40897H59.4807L55.7886 14.1979L54.8906 17.4195L54.2063 14.7253L53.8927 13.642L50.3004 2.40897H44.6697V22.4943H48.4045ZM72.6128 22.7794C74.8746 22.7794 76.5662 21.7673 77.6876 19.7431H77.7732C77.8682 20.703 78.1557 21.43 78.6356 21.9241C79.1155 22.4183 79.8592 22.6654 80.8665 22.6654C81.1516 22.6654 81.4011 22.6559 81.6149 22.6369C81.8287 22.6179 82.0307 22.5941 82.2207 22.5656C82.4108 22.5371 82.6009 22.4991 82.7909 22.4516C82.981 22.4041 83.1948 22.3518 83.4324 22.2948V20.128C83.1473 20.185 82.8527 20.2135 82.5486 20.2135C82.0924 20.2135 81.767 20.0496 81.5721 19.7217C81.3773 19.3939 81.2799 18.7975 81.2799 17.9327V12.3162C81.2799 10.5486 80.7525 9.18488 79.6976 8.22504C78.6427 7.2652 77.1412 6.78527 75.193 6.78527C73.2638 6.78527 71.7409 7.17254 70.6243 7.94706C69.5076 8.72159 68.821 9.85962 68.5644 11.3611L72.7411 11.5607C72.8267 10.7814 73.0429 10.2231 73.3897 9.88575C73.7366 9.54838 74.2807 9.37969 75.0219 9.37969C75.8202 9.37969 76.3952 9.62441 76.7468 10.1138C77.0984 10.6033 77.2742 11.3516 77.2742 12.359V13.143L73.9528 13.2001C71.9761 13.2191 70.4675 13.6467 69.4268 14.483C68.3862 15.3193 67.8659 16.5357 67.8659 18.1323C67.8659 19.6053 68.2841 20.7481 69.1203 21.5606C69.9566 22.3732 71.1208 22.7794 72.6128 22.7794ZM73.8958 19.9855C73.3351 19.9855 72.8861 19.8073 72.5487 19.4509C72.2113 19.0945 72.0426 18.5504 72.0426 17.8187C72.0426 17.2485 72.1448 16.7923 72.3491 16.4502C72.5534 16.1081 72.8504 15.8539 73.2401 15.6876C73.6297 15.5212 74.2902 15.4191 75.2215 15.3811L77.2742 15.3526V16.1366C77.2742 16.8113 77.1269 17.4504 76.8323 18.0539C76.5377 18.6574 76.1315 19.1302 75.6135 19.4723C75.0956 19.8144 74.523 19.9855 73.8958 19.9855ZM89.266 22.4943V14.9249C89.266 13.3378 89.544 12.1404 90.0999 11.3326C90.6559 10.5249 91.4328 10.121 92.4306 10.121C92.9248 10.121 93.495 10.1922 94.1412 10.3348V6.98485C93.8276 6.8423 93.4142 6.77102 92.901 6.77102C92.2738 6.77102 91.7511 6.87793 91.333 7.09176C90.9148 7.30558 90.5537 7.63345 90.2496 8.07536C89.9455 8.51726 89.5986 9.27991 89.209 10.3633H89.152C89.152 10.0782 89.1282 9.50086 89.0807 8.6313C89.0332 7.76175 88.9951 7.24144 88.9666 7.07038H85.1463C85.1748 7.50753 85.2009 8.00883 85.2247 8.57428C85.2484 9.13974 85.2603 9.84536 85.2603 10.6912V22.4943H89.266ZM100.545 22.7509C101.809 22.7509 102.935 22.5894 103.923 22.2663V19.7859C103.344 19.9189 102.897 19.9855 102.583 19.9855C101.985 19.9855 101.543 19.8073 101.258 19.4509C100.973 19.0945 100.83 18.5409 100.83 17.7902V9.77884H103.752V7.07038H100.83V3.44959H98.3212L97.0668 7.07038H94.9142V9.77884H96.8672V18.8736C96.8672 20.1755 97.1856 21.1472 97.8223 21.7887C98.459 22.4302 99.3666 22.7509 100.545 22.7509ZM110.299 4.29064V1.33984H106.293V4.29064H110.299ZM110.299 22.4943V7.07038H106.293V22.4943H110.299ZM118.385 22.4943V14.2264C118.385 12.9245 118.682 11.8577 119.276 11.0262C119.869 10.1946 120.651 9.77884 121.62 9.77884C123.455 9.77884 124.372 11.1331 124.372 13.8415V22.4943H128.363V12.7011C128.363 10.7624 127.926 9.28941 127.052 8.28206C126.177 7.2747 124.923 6.77102 123.288 6.77102C122.157 6.77102 121.183 7.03711 120.366 7.5693C119.549 8.10149 118.869 8.9568 118.328 10.1352H118.271C118.271 9.84061 118.247 9.30129 118.199 8.51726C118.152 7.73324 118.114 7.25094 118.085 7.07038H114.265C114.293 7.48852 114.32 7.96132 114.343 8.48875C114.367 9.01619 114.379 9.69331 114.379 10.5201V22.4943H118.385ZM139.001 22.7794C141.452 22.7794 143.372 22.0691 144.76 20.6483C146.147 19.2276 146.841 17.2675 146.841 14.7681C146.841 12.1927 146.178 10.2184 144.852 8.84513C143.527 7.47189 141.605 6.78527 139.086 6.78527C136.625 6.78527 134.71 7.49565 133.341 8.91641C131.973 10.3372 131.289 12.2877 131.289 14.7681C131.289 17.258 131.973 19.2157 133.341 20.6412C134.71 22.0667 136.596 22.7794 139.001 22.7794ZM138.958 20.0425C137.836 20.0425 136.979 19.5934 136.385 18.6954C135.791 17.7973 135.494 16.4882 135.494 14.7681C135.494 11.2804 136.71 9.5365 139.143 9.5365C140.284 9.5365 141.153 9.9499 141.752 10.7767C142.351 11.6035 142.65 12.934 142.65 14.7681C142.65 18.2844 141.419 20.0425 138.958 20.0425Z" fill="white"/>
<path opacity="0.595853" d="M84.3765 35.0723C84.6806 35.0723 84.9623 35.0237 85.2215 34.9265C85.4808 34.8293 85.6989 34.6997 85.8759 34.5376C86.0528 34.3756 86.1999 34.2111 86.3171 34.0441C86.4342 33.8771 86.5302 33.7038 86.605 33.5243L85.7226 33.2477C85.6129 33.5219 85.4371 33.7537 85.1954 33.9431C84.9536 34.1326 84.6756 34.2273 84.3616 34.2273C83.878 34.2273 83.4916 34.0254 83.2025 33.6216C82.9133 33.2177 82.7687 32.6694 82.7687 31.9764C82.7687 31.2934 82.9121 30.7487 83.1987 30.3424C83.4854 29.9361 83.873 29.733 84.3616 29.733C84.875 29.733 85.2913 30.0196 85.6104 30.5929L86.4554 30.3163C86.2809 29.9124 86.0155 29.5734 85.659 29.2992C85.3025 29.025 84.875 28.8879 84.3765 28.8879C83.6038 28.8879 82.9731 29.1659 82.4846 29.7218C81.996 30.2776 81.7517 31.0292 81.7517 31.9764C81.7517 32.9386 81.9997 33.6951 82.4958 34.246C82.9918 34.7969 83.6187 35.0723 84.3765 35.0723ZM89.0353 35.0723C89.3345 35.0723 89.6024 35.0225 89.8392 34.9227C90.076 34.823 90.2667 34.6947 90.4113 34.5376C90.5559 34.3806 90.6755 34.1986 90.7703 33.9917C90.865 33.7848 90.931 33.5817 90.9684 33.3823C91.0058 33.1829 91.0245 32.9834 91.0245 32.784C91.0245 32.1409 90.855 31.5975 90.516 31.1538C90.177 30.7101 89.6834 30.4883 89.0353 30.4883C88.3823 30.4883 87.8862 30.7101 87.5472 31.1538C87.2082 31.5975 87.0387 32.1409 87.0387 32.784C87.0387 32.9934 87.0574 33.1991 87.0948 33.401C87.1322 33.6029 87.1995 33.8073 87.2967 34.0142C87.3939 34.2211 87.516 34.4005 87.6631 34.5526C87.8102 34.7046 88.0021 34.8293 88.2389 34.9265C88.4757 35.0237 88.7412 35.0723 89.0353 35.0723ZM89.0353 34.2647C88.7611 34.2647 88.5218 34.1425 88.3174 33.8983C88.113 33.654 88.0108 33.2826 88.0108 32.784C88.0108 32.2755 88.1143 31.9004 88.3212 31.6586C88.5281 31.4168 88.7661 31.2959 89.0353 31.2959C89.3046 31.2959 89.5414 31.4168 89.7458 31.6586C89.9502 31.9004 90.0524 32.2755 90.0524 32.784C90.0524 33.2826 89.9502 33.654 89.7458 33.8983C89.5414 34.1425 89.3046 34.2647 89.0353 34.2647ZM92.8267 34.9377V28.8281H91.8845V34.9377H92.8267ZM95.6833 35.0723C95.9825 35.0723 96.2504 35.0225 96.4872 34.9227C96.724 34.823 96.9147 34.6947 97.0593 34.5376C97.2039 34.3806 97.3235 34.1986 97.4183 33.9917C97.513 33.7848 97.579 33.5817 97.6164 33.3823C97.6538 33.1829 97.6725 32.9834 97.6725 32.784C97.6725 32.1409 97.503 31.5975 97.164 31.1538C96.825 30.7101 96.3314 30.4883 95.6833 30.4883C95.0303 30.4883 94.5342 30.7101 94.1952 31.1538C93.8562 31.5975 93.6867 32.1409 93.6867 32.784C93.6867 32.9934 93.7054 33.1991 93.7428 33.401C93.7802 33.6029 93.8475 33.8073 93.9447 34.0142C94.0419 34.2211 94.164 34.4005 94.3111 34.5526C94.4582 34.7046 94.6501 34.8293 94.8869 34.9265C95.1237 35.0237 95.3892 35.0723 95.6833 35.0723ZM95.6833 34.2647C95.4091 34.2647 95.1698 34.1425 94.9654 33.8983C94.761 33.654 94.6588 33.2826 94.6588 32.784C94.6588 32.2755 94.7623 31.9004 94.9692 31.6586C95.1761 31.4168 95.4141 31.2959 95.6833 31.2959C95.9525 31.2959 96.1894 31.4168 96.3938 31.6586C96.5982 31.9004 96.7004 32.2755 96.7004 32.784C96.7004 33.2826 96.5982 33.654 96.3938 33.8983C96.1894 34.1425 95.9525 34.2647 95.6833 34.2647ZM99.3999 34.9377V32.7392C99.3999 32.3204 99.4859 31.9851 99.6579 31.7334C99.8299 31.4816 100.078 31.3557 100.402 31.3557C100.586 31.3557 100.773 31.3856 100.963 31.4454V30.5855C100.818 30.5207 100.631 30.4883 100.402 30.4883C100.158 30.4883 99.9471 30.5481 99.7701 30.6677C99.5931 30.7874 99.4573 30.927 99.3625 31.0865V30.6229H98.4502V34.9377H99.3999ZM103.004 35.0723C103.548 35.0723 103.968 34.9489 104.264 34.7021C104.561 34.4554 104.709 34.155 104.709 33.801C104.709 33.2277 104.266 32.799 103.378 32.5148C103.353 32.5048 103.313 32.4924 103.259 32.4774C103.049 32.4076 102.887 32.3503 102.773 32.3054C102.658 32.2606 102.547 32.1895 102.44 32.0923C102.333 31.9951 102.279 31.8842 102.279 31.7595C102.279 31.61 102.34 31.4891 102.462 31.3968C102.584 31.3046 102.76 31.2585 102.989 31.2585C103.408 31.2585 103.765 31.4604 104.059 31.8642L104.687 31.4828C104.532 31.1937 104.298 30.9556 103.984 30.7687C103.67 30.5817 103.336 30.4883 102.982 30.4883C102.508 30.4883 102.112 30.6029 101.793 30.8322C101.474 31.0616 101.314 31.3657 101.314 31.7446C101.314 31.939 101.349 32.1097 101.419 32.2568C101.489 32.4039 101.591 32.526 101.726 32.6232C101.86 32.7205 101.989 32.7977 102.111 32.8551C102.233 32.9124 102.384 32.971 102.563 33.0308C102.583 33.0358 102.616 33.0458 102.66 33.0607C102.91 33.1405 103.097 33.204 103.221 33.2514C103.346 33.2988 103.464 33.3698 103.576 33.4645C103.689 33.5592 103.745 33.6689 103.745 33.7936C103.745 33.9481 103.676 34.0715 103.539 34.1637C103.402 34.256 103.216 34.3021 102.982 34.3021C102.503 34.3021 102.114 34.0827 101.815 33.644L101.135 34.0403C101.309 34.3594 101.56 34.6112 101.886 34.7956C102.213 34.9801 102.586 35.0723 103.004 35.0723ZM109.069 35.0723C109.368 35.0723 109.636 35.0225 109.873 34.9227C110.11 34.823 110.3 34.6947 110.445 34.5376C110.59 34.3806 110.709 34.1986 110.804 33.9917C110.899 33.7848 110.965 33.5817 111.002 33.3823C111.04 33.1829 111.058 32.9834 111.058 32.784C111.058 32.1409 110.889 31.5975 110.55 31.1538C110.211 30.7101 109.717 30.4883 109.069 30.4883C108.416 30.4883 107.92 30.7101 107.581 31.1538C107.242 31.5975 107.072 32.1409 107.072 32.784C107.072 32.9934 107.091 33.1991 107.129 33.401C107.166 33.6029 107.233 33.8073 107.33 34.0142C107.428 34.2211 107.55 34.4005 107.697 34.5526C107.844 34.7046 108.036 34.8293 108.273 34.9265C108.509 35.0237 108.775 35.0723 109.069 35.0723ZM109.069 34.2647C108.795 34.2647 108.556 34.1425 108.351 33.8983C108.147 33.654 108.045 33.2826 108.045 32.784C108.045 32.2755 108.148 31.9004 108.355 31.6586C108.562 31.4168 108.8 31.2959 109.069 31.2959C109.338 31.2959 109.575 31.4168 109.779 31.6586C109.984 31.9004 110.086 32.2755 110.086 32.784C110.086 33.2826 109.984 33.654 109.779 33.8983C109.575 34.1425 109.338 34.2647 109.069 34.2647ZM113.115 34.9377V31.4305H114.012V30.6229H113.115V30.2265C113.115 30.0171 113.151 29.8651 113.223 29.7704C113.295 29.6756 113.409 29.6283 113.563 29.6283H114.109V28.8281H113.429C113.025 28.8281 112.712 28.939 112.49 29.1609C112.268 29.3827 112.158 29.7155 112.158 30.1592V30.6229H111.499V31.4305H112.158V34.9377H113.115ZM116.771 36.7025C117.145 36.7025 117.458 36.6128 117.71 36.4333C117.962 36.2538 118.167 35.9447 118.327 35.506L120.114 30.6229H119.082L118.402 32.8438C118.242 33.4172 118.15 33.7487 118.125 33.8384H118.095C118.03 33.5842 117.936 33.2526 117.811 32.8438L117.071 30.6229H116.031L117.646 34.833L117.504 35.2593C117.42 35.4986 117.306 35.6668 117.164 35.764C117.022 35.8612 116.839 35.9099 116.614 35.9099H116.48V36.7025H116.771ZM122.432 35.0723C122.731 35.0723 122.999 35.0225 123.236 34.9227C123.473 34.823 123.664 34.6947 123.808 34.5376C123.953 34.3806 124.073 34.1986 124.167 33.9917C124.262 33.7848 124.328 33.5817 124.365 33.3823C124.403 33.1829 124.422 32.9834 124.422 32.784C124.422 32.1409 124.252 31.5975 123.913 31.1538C123.574 30.7101 123.08 30.4883 122.432 30.4883C121.779 30.4883 121.283 30.7101 120.944 31.1538C120.605 31.5975 120.436 32.1409 120.436 32.784C120.436 32.9934 120.454 33.1991 120.492 33.401C120.529 33.6029 120.597 33.8073 120.694 34.0142C120.791 34.2211 120.913 34.4005 121.06 34.5526C121.207 34.7046 121.399 34.8293 121.636 34.9265C121.873 35.0237 122.138 35.0723 122.432 35.0723ZM122.432 34.2647C122.158 34.2647 121.919 34.1425 121.714 33.8983C121.51 33.654 121.408 33.2826 121.408 32.784C121.408 32.2755 121.511 31.9004 121.718 31.6586C121.925 31.4168 122.163 31.2959 122.432 31.2959C122.702 31.2959 122.938 31.4168 123.143 31.6586C123.347 31.9004 123.449 32.2755 123.449 32.784C123.449 33.2826 123.347 33.654 123.143 33.8983C122.938 34.1425 122.702 34.2647 122.432 34.2647ZM126.598 35.0723C126.892 35.0723 127.137 35.005 127.334 34.8704C127.531 34.7358 127.665 34.5912 127.734 34.4367H127.742V34.9377H128.654V30.6229H127.712V33.0383C127.712 33.3723 127.632 33.6602 127.473 33.902C127.313 34.1438 127.091 34.2647 126.807 34.2647C126.333 34.2647 126.097 33.9282 126.097 33.2551V30.6229H125.147V33.3748C125.147 33.6988 125.192 33.978 125.282 34.2123C125.371 34.4466 125.491 34.6224 125.64 34.7395C125.79 34.8567 125.943 34.9414 126.1 34.9938C126.257 35.0461 126.423 35.0723 126.598 35.0723ZM130.636 34.9377V32.7392C130.636 32.3204 130.722 31.9851 130.894 31.7334C131.066 31.4816 131.314 31.3557 131.638 31.3557C131.822 31.3557 132.009 31.3856 132.199 31.4454V30.5855C132.054 30.5207 131.867 30.4883 131.638 30.4883C131.394 30.4883 131.183 30.5481 131.006 30.6677C130.829 30.7874 130.693 30.927 130.598 31.0865V30.6229H129.686V34.9377H130.636ZM135.586 34.9377V28.8281H134.644V34.9377H135.586ZM137.762 29.9797V28.9403H136.745V29.9797H137.762ZM137.725 34.9377V30.6229H136.79V34.9377H137.725ZM140.125 34.9377V31.4305H141.023V30.6229H140.125V30.2265C140.125 30.0171 140.162 29.8651 140.234 29.7704C140.306 29.6756 140.42 29.6283 140.574 29.6283H141.12V28.8281H140.44C140.036 28.8281 139.723 28.939 139.501 29.1609C139.279 29.3827 139.168 29.7155 139.168 30.1592V30.6229H138.51V31.4305H139.168V34.9377H140.125ZM143.438 35.0723C143.907 35.0723 144.298 34.9651 144.612 34.7508C144.926 34.5364 145.153 34.2697 145.293 33.9506L144.5 33.6814C144.405 33.8658 144.267 34.0167 144.085 34.1338C143.903 34.251 143.693 34.3095 143.453 34.3095C143.109 34.3095 142.839 34.1911 142.642 33.9543C142.445 33.7175 142.346 33.4346 142.346 33.1056H145.338C145.353 32.9809 145.36 32.8538 145.36 32.7242C145.36 32.0611 145.176 31.5227 144.807 31.1089C144.438 30.6951 143.969 30.4883 143.401 30.4883C142.823 30.4883 142.343 30.6939 141.961 31.1052C141.58 31.5165 141.389 32.0686 141.389 32.7616C141.389 33.4645 141.58 34.0254 141.961 34.4442C142.343 34.8629 142.835 35.0723 143.438 35.0723ZM144.395 32.44H142.361C142.366 32.121 142.462 31.843 142.649 31.6062C142.836 31.3694 143.087 31.251 143.401 31.251C143.715 31.251 143.959 31.3669 144.134 31.5987C144.308 31.8306 144.395 32.111 144.395 32.44Z" fill="white"/>
<path d="M9.21409 4.82908L9.21409 34.6115C9.21395 34.8965 9.06717 35.1602 8.82817 35.3048C8.58918 35.4494 8.29362 35.4532 8.05111 35.315L1.00269 31.2904C0.75391 31.1485 0.599512 30.8792 0.599365 30.5868L0.599365 0.804428C0.599508 0.519405 0.746294 0.255711 0.985287 0.111141C1.22428 -0.0334282 1.51984 -0.0373154 1.76235 0.100922L8.81077 4.12557C9.05955 4.26738 9.21395 4.53669 9.21409 4.82908Z" fill="white"/>
<path d="M20.7004 4.83006L20.7004 34.6125C20.7003 34.8975 20.5535 35.1612 20.3145 35.3058C20.0755 35.4503 19.7799 35.4542 19.5374 35.316L12.489 31.2913C12.2402 31.1495 12.0858 30.8802 12.0857 30.5878L12.0857 0.805405C12.0858 0.520382 12.2326 0.256687 12.4716 0.112118C12.7106 -0.0324516 13.0062 -0.0363388 13.2487 0.101898L20.2971 4.12655C20.5459 4.26836 20.7003 4.53767 20.7004 4.83006Z" fill="white"/>
<path d="M32.1848 4.83006V34.6125C32.1847 34.8975 32.0379 35.1612 31.7989 35.3058C31.5599 35.4503 31.2643 35.4542 31.0218 35.316L23.9734 31.2913C23.7246 31.1495 23.5702 30.8802 23.5701 30.5878L23.5701 0.805405C23.5702 0.520382 23.717 0.256687 23.956 0.112118C24.195 -0.0324516 24.4905 -0.0363388 24.7331 0.101898L31.7815 4.12655C32.0303 4.26836 32.1847 4.53767 32.1848 4.83006Z" fill="white"/>
</g>
</svg>
