<svg width="153" height="35" viewBox="0 0 153 35" fill="none" xmlns="http://www.w3.org/2000/svg">
<g opacity="1">
<path d="M53.9499 22.7457C58.3173 22.7457 61.2172 20.7193 61.2172 17.2254C61.2172 13.7189 58.3357 12.6215 55.5695 11.7963L55.251 11.7021C52.8157 10.9878 50.5608 10.4221 50.5608 8.52557C50.5608 7.0232 51.7837 6.07984 53.915 6.07984C55.7668 6.07984 57.0944 6.8485 57.6884 8.49063L60.5185 7.37259C59.7149 4.92686 57.3041 3.56424 53.9499 3.56424C49.897 3.56424 47.2766 5.52082 47.2766 8.70027C47.2766 15.0242 57.8631 13.0327 57.8631 17.47C57.8631 19.182 56.3607 20.1603 54.0547 20.1603C51.5042 20.1603 49.7922 19.0422 49.1982 17.1555L46.3682 18.2736C47.3465 21.2084 50.1416 22.7457 53.9499 22.7457ZM81.1558 28.6155V3.94856H78.3956V7.37259C76.9281 4.99673 74.4824 3.56424 71.4078 3.56424C66.1669 3.56424 62.4285 7.68704 62.4285 13.1725C62.4285 18.6579 66.2717 22.7457 71.4777 22.7457C74.3776 22.7457 76.7185 21.453 78.1859 19.3217V28.6155H81.1558ZM71.827 20.1253C68.1235 20.1253 65.3633 17.1555 65.3633 13.1725C65.3633 9.15448 68.1235 6.18466 71.827 6.18466C75.6354 6.18466 78.2908 9.0846 78.2908 13.1725C78.2908 17.2603 75.6703 20.1253 71.827 20.1253ZM92.0451 22.7457C94.7703 22.7457 96.9715 21.453 98.1943 19.741V22.3614H101.024V3.94856H98.0546V15.5134C98.0196 17.8543 95.9233 20.0904 92.8137 20.0904C89.6692 20.1253 87.6777 18.0639 87.6777 14.9543V3.94856H84.7079V15.3037C84.7079 19.6711 87.3283 22.7457 92.0451 22.7457ZM112.717 22.7457C115.827 22.7457 118.238 21.2783 119.635 18.8326V22.3614H122.395V3.94856H119.635V7.51234C118.238 5.13649 115.827 3.73893 112.717 3.73893C107.511 3.73893 103.668 7.68704 103.668 13.1375C103.668 18.6579 107.476 22.7457 112.717 22.7457ZM113.067 20.1253C109.363 20.1253 106.603 17.1555 106.603 13.1375C106.603 9.18941 109.363 6.18466 113.067 6.18466C116.91 6.18466 119.53 9.04966 119.53 13.1375C119.53 17.2603 116.875 20.1253 113.067 20.1253ZM129.162 22.3614V11.2508C129.162 8.63039 131.503 6.35936 134.857 6.32442V3.56424C132.271 3.56424 130.175 4.92686 128.987 6.63887V3.94856H126.192V22.3614H129.162ZM144.104 22.7807C148.472 22.7807 151.022 20.894 152.385 18.2736L149.799 16.7013C148.891 18.8326 147.214 19.9856 144.209 19.9856C140.82 19.9856 138.13 17.6796 137.606 14.2556H152.909C152.944 13.9062 152.979 13.2773 152.979 12.7532C152.979 7.89667 149.45 3.5293 143.895 3.5293C138.689 3.5293 134.601 7.82679 134.601 13.1725C134.601 18.6579 138.444 22.7807 144.104 22.7807ZM149.939 11.6701H137.64C138.199 8.17618 140.89 6.11478 143.999 6.11478C147.074 6.11478 149.485 8.21112 149.939 11.6701Z" fill="white"/>
<path d="M89.0762 33.6069C89.1717 33.6069 89.2727 33.6007 89.3792 33.5885C89.4856 33.5762 89.6017 33.5578 89.7272 33.5332V33.2138H89.6535C89.3069 33.2138 89.0598 33.1722 88.9124 33.0889C88.765 33.0057 88.649 32.8494 88.5644 32.6201C88.5262 32.5246 88.4743 32.3315 88.4088 32.0408C88.3433 31.7501 88.2641 31.5297 88.1713 31.3795C88.0894 31.243 87.9775 31.1291 87.8356 31.0376C87.6937 30.9462 87.5176 30.8718 87.3074 30.8145C87.7578 30.7162 88.0963 30.5504 88.3228 30.317C88.5494 30.0836 88.6627 29.7854 88.6627 29.4224C88.6627 28.912 88.4975 28.5332 88.1672 28.2862C87.837 28.0392 87.3293 27.9157 86.6441 27.9157H84.5068V28.2514L84.9818 28.3005L85.1251 28.4193V33.0378L84.9818 33.1565L84.5068 33.1974V33.5414H86.5008V33.1974L86.0218 33.1565L85.8785 33.0378V31.0438L85.9071 31.0397C86.0873 31.0315 86.2183 31.0274 86.3002 31.0274C86.6851 31.0274 86.9724 31.0929 87.1621 31.2239C87.3518 31.355 87.5026 31.5911 87.6145 31.9323C87.6445 32.0223 87.6841 32.1588 87.7332 32.3417C87.8643 32.8494 88.0294 33.1906 88.2287 33.3653C88.3242 33.4472 88.4409 33.5079 88.5787 33.5475C88.7166 33.5871 88.8824 33.6069 89.0762 33.6069ZM86.3411 30.6466C86.2702 30.6466 86.1965 30.6459 86.12 30.6446C86.0436 30.6432 85.9631 30.6412 85.8785 30.6384V28.3005H86.2838C86.827 28.3005 87.2201 28.3947 87.463 28.583C87.7059 28.7714 87.8274 29.0744 87.8274 29.492C87.8274 29.896 87.7093 30.1894 87.4732 30.3723C87.2371 30.5552 86.8598 30.6466 86.3411 30.6466ZM91.2451 33.6151C91.5154 33.6151 91.7842 33.5728 92.0517 33.4881C92.3192 33.4035 92.5772 33.2793 92.8256 33.1156V32.6529C92.5745 32.8194 92.3418 32.9422 92.1275 33.0214C91.9132 33.1005 91.7064 33.1401 91.5072 33.1401C91.0759 33.1401 90.7333 32.9866 90.4795 32.6795C90.2256 32.3724 90.0987 31.9555 90.0987 31.4287V31.3345H92.8133C92.8188 31.3017 92.8222 31.2676 92.8235 31.2321C92.8249 31.1966 92.8256 31.1448 92.8256 31.0765C92.8256 30.5661 92.6898 30.1628 92.4182 29.8666C92.1466 29.5705 91.7788 29.4224 91.3148 29.4224C90.747 29.4224 90.2823 29.621 89.9206 30.0181C89.5589 30.4153 89.3781 30.9278 89.3781 31.5556C89.3781 32.167 89.5507 32.6631 89.896 33.0439C90.2413 33.4247 90.691 33.6151 91.2451 33.6151ZM92.0763 30.9824H90.1397C90.1642 30.6412 90.2782 30.3593 90.4815 30.1369C90.6849 29.9144 90.9258 29.8032 91.2042 29.8032C91.4881 29.8032 91.7044 29.8933 91.8532 30.0734C92.0019 30.2536 92.0763 30.5129 92.0763 30.8513V30.9824ZM94.3312 33.5987C94.5278 33.5987 94.7386 33.5543 94.9638 33.4656C95.189 33.3769 95.4367 33.2398 95.707 33.0541L95.8175 33.5414H96.9967V33.2384L96.5545 33.1974L96.4112 33.0623V30.6302C96.4112 30.2072 96.3116 29.9001 96.1123 29.709C95.9131 29.5179 95.5937 29.4224 95.1542 29.4224C94.6547 29.4224 94.2473 29.5125 93.932 29.6926C93.6168 29.8728 93.4591 30.0993 93.4591 30.3723C93.4591 30.4706 93.4776 30.5381 93.5144 30.575C93.5513 30.6118 93.6202 30.6302 93.7212 30.6302H94.2985V29.926C94.4104 29.8823 94.5182 29.8496 94.6219 29.8277C94.7257 29.8059 94.8308 29.795 94.9372 29.795C95.2211 29.795 95.4204 29.8632 95.535 29.9997C95.6496 30.1362 95.707 30.3805 95.707 30.7326V30.9987C94.6615 31.2499 93.9921 31.4778 93.6987 31.6825C93.4052 31.8872 93.2585 32.1684 93.2585 32.526C93.2585 32.8481 93.3561 33.1074 93.5513 33.3039C93.7464 33.5004 94.0064 33.5987 94.3312 33.5987ZM94.667 33.1483C94.4623 33.1483 94.2992 33.0862 94.1777 32.962C94.0562 32.8378 93.9955 32.6706 93.9955 32.4604C93.9955 32.1984 94.1054 31.9869 94.3251 31.8258C94.5448 31.6648 95.0055 31.4873 95.707 31.2935V32.7716C95.4859 32.8972 95.29 32.9914 95.1194 33.0541C94.9488 33.1169 94.798 33.1483 94.667 33.1483ZM99.0756 33.5414V33.2384L98.5965 33.1974L98.445 33.0623V27.3711H98.1257L97.1021 27.67V27.932H97.749V33.0623L97.6057 33.1974L97.1103 33.2384V33.5414H99.0756ZM105.608 33.5414V32.1738H105.174L105.031 33.0214L104.912 33.1565H102.664V30.8063H104.04L104.159 30.9332L104.241 31.5392H104.638V29.6926H104.241L104.159 30.3027L104.04 30.4214H102.664V28.3005H104.605L104.72 28.4275L104.838 29.1399H105.309V27.9157H101.293V28.2514L101.768 28.3005L101.911 28.4193V33.0378L101.768 33.1565L101.293 33.1974V33.5414H105.608ZM107.007 33.6151C107.499 33.6151 107.883 33.5038 108.16 33.2814C108.437 33.0589 108.575 32.7512 108.575 32.3581C108.575 32.208 108.548 32.0708 108.494 31.9466C108.439 31.8224 108.36 31.7194 108.256 31.6375C108.114 31.5201 107.885 31.3891 107.568 31.2444C107.478 31.2035 107.411 31.1721 107.368 31.1502C107.089 31.0165 106.901 30.895 106.803 30.7858C106.704 30.6767 106.655 30.5443 106.655 30.3887C106.655 30.1976 106.717 30.0488 106.839 29.9424C106.962 29.8359 107.133 29.7827 107.351 29.7827C107.452 29.7827 107.553 29.7977 107.654 29.8277C107.755 29.8578 107.862 29.9028 107.974 29.9629L108.039 30.5565H108.453V29.6066C108.311 29.5466 108.158 29.5009 107.996 29.4695C107.834 29.4381 107.658 29.4224 107.47 29.4224C106.998 29.4224 106.632 29.5248 106.373 29.7295C106.113 29.9342 105.984 30.2235 105.984 30.5975C105.984 30.8432 106.059 31.0492 106.211 31.2157C106.362 31.3823 106.648 31.5597 107.069 31.748C107.44 31.9173 107.675 32.0571 107.773 32.1677C107.871 32.2782 107.92 32.4181 107.92 32.5874C107.92 32.7894 107.849 32.9525 107.705 33.0767C107.562 33.2009 107.372 33.263 107.134 33.263C107.014 33.263 106.895 33.2466 106.776 33.2138C106.657 33.1811 106.539 33.1306 106.422 33.0623L106.319 32.3499H105.918V33.439C106.074 33.4991 106.244 33.5434 106.428 33.5721C106.612 33.6007 106.805 33.6151 107.007 33.6151ZM110.249 33.5659C110.421 33.5659 110.6 33.5502 110.785 33.5189C110.971 33.4875 111.159 33.4417 111.35 33.3817V33.0705C111.247 33.0951 111.146 33.1128 111.049 33.1237C110.953 33.1347 110.859 33.1401 110.769 33.1401C110.507 33.1401 110.325 33.078 110.224 32.9538C110.123 32.8296 110.073 32.586 110.073 32.223V30.012H111.35V29.6189H110.073V28.7263H109.762L109.401 29.5084L108.849 29.7499V30.012H109.377V32.7184C109.377 33.0405 109.442 33.2623 109.571 33.3837C109.701 33.5052 109.927 33.5659 110.249 33.5659ZM112.586 33.5987C112.782 33.5987 112.993 33.5543 113.218 33.4656C113.444 33.3769 113.691 33.2398 113.962 33.0541L114.072 33.5414H115.251V33.2384L114.809 33.1974L114.666 33.0623V30.6302C114.666 30.2072 114.566 29.9001 114.367 29.709C114.168 29.5179 113.848 29.4224 113.409 29.4224C112.909 29.4224 112.502 29.5125 112.187 29.6926C111.871 29.8728 111.714 30.0993 111.714 30.3723C111.714 30.4706 111.732 30.5381 111.769 30.575C111.806 30.6118 111.875 30.6302 111.976 30.6302H112.553V29.926C112.665 29.8823 112.773 29.8496 112.876 29.8277C112.98 29.8059 113.085 29.795 113.192 29.795C113.476 29.795 113.675 29.8632 113.79 29.9997C113.904 30.1362 113.962 30.3805 113.962 30.7326V30.9987C112.916 31.2499 112.247 31.4778 111.953 31.6825C111.66 31.8872 111.513 32.1684 111.513 32.526C111.513 32.8481 111.611 33.1074 111.806 33.3039C112.001 33.5004 112.261 33.5987 112.586 33.5987ZM112.922 33.1483C112.717 33.1483 112.554 33.0862 112.432 32.962C112.311 32.8378 112.25 32.6706 112.25 32.4604C112.25 32.1984 112.36 31.9869 112.58 31.8258C112.799 31.6648 113.26 31.4873 113.962 31.2935V32.7716C113.74 32.8972 113.545 32.9914 113.374 33.0541C113.203 33.1169 113.053 33.1483 112.922 33.1483ZM116.741 33.5659C116.912 33.5659 117.091 33.5502 117.277 33.5189C117.463 33.4875 117.651 33.4417 117.842 33.3817V33.0705C117.738 33.0951 117.638 33.1128 117.541 33.1237C117.444 33.1347 117.351 33.1401 117.261 33.1401C116.998 33.1401 116.817 33.078 116.716 32.9538C116.615 32.8296 116.564 32.586 116.564 32.223V30.012H117.842V29.6189H116.564V28.7263H116.253L115.893 29.5084L115.34 29.7499V30.012H115.868V32.7184C115.868 33.0405 115.933 33.2623 116.063 33.3837C116.193 33.5052 116.418 33.5659 116.741 33.5659ZM119.831 33.6151C120.101 33.6151 120.37 33.5728 120.637 33.4881C120.905 33.4035 121.163 33.2793 121.411 33.1156V32.6529C121.16 32.8194 120.927 32.9422 120.713 33.0214C120.499 33.1005 120.292 33.1401 120.093 33.1401C119.661 33.1401 119.319 32.9866 119.065 32.6795C118.811 32.3724 118.684 31.9555 118.684 31.4287V31.3345H121.399C121.404 31.3017 121.408 31.2676 121.409 31.2321C121.41 31.1966 121.411 31.1448 121.411 31.0765C121.411 30.5661 121.275 30.1628 121.004 29.8666C120.732 29.5705 120.364 29.4224 119.9 29.4224C119.333 29.4224 118.868 29.621 118.506 30.0181C118.144 30.4153 117.964 30.9278 117.964 31.5556C117.964 32.167 118.136 32.6631 118.482 33.0439C118.827 33.4247 119.277 33.6151 119.831 33.6151ZM120.662 30.9824H118.725C118.75 30.6412 118.864 30.3593 119.067 30.1369C119.27 29.9144 119.511 29.8032 119.79 29.8032C120.074 29.8032 120.29 29.8933 120.439 30.0734C120.587 30.2536 120.662 30.5129 120.662 30.8513V30.9824ZM125.557 33.6437C126.212 33.6437 126.737 33.4888 127.133 33.179C127.529 32.8692 127.727 32.4618 127.727 31.9568C127.727 31.774 127.696 31.6047 127.635 31.4491C127.573 31.2935 127.481 31.1557 127.358 31.0356C127.143 30.8227 126.79 30.6207 126.302 30.4296C126.209 30.3941 126.139 30.3668 126.093 30.3477C125.596 30.1376 125.276 29.9581 125.133 29.8093C124.99 29.6606 124.918 29.4729 124.918 29.2463C124.918 28.9352 125.02 28.6888 125.225 28.5073C125.43 28.3258 125.707 28.235 126.056 28.235C126.204 28.235 126.34 28.2493 126.466 28.278C126.591 28.3067 126.707 28.351 126.814 28.4111L126.936 28.5503L127.063 29.3487H127.501V28.0508C127.256 27.9716 127.015 27.9122 126.779 27.8727C126.543 27.8331 126.307 27.8133 126.072 27.8133C125.488 27.8133 125.02 27.9614 124.666 28.2575C124.313 28.5537 124.136 28.942 124.136 29.4224C124.136 29.7636 124.229 30.0413 124.414 30.2556C124.6 30.4699 124.979 30.7012 125.553 30.9496C125.599 30.9687 125.666 30.9974 125.753 31.0356C126.556 31.3768 126.957 31.7617 126.957 32.1902C126.957 32.4987 126.843 32.7436 126.615 32.9252C126.387 33.1067 126.078 33.1974 125.688 33.1974C125.502 33.1974 125.33 33.1811 125.172 33.1483C125.013 33.1156 124.873 33.0678 124.75 33.005L124.639 32.8617L124.541 31.8995H124.046V33.3735C124.245 33.4609 124.474 33.5277 124.732 33.5741C124.99 33.6205 125.265 33.6437 125.557 33.6437ZM130.182 33.6151C130.75 33.6151 131.217 33.4192 131.585 33.0275C131.952 32.6358 132.135 32.1329 132.135 31.5187C132.135 30.9046 131.952 30.4016 131.587 30.0099C131.221 29.6182 130.753 29.4224 130.182 29.4224C129.609 29.4224 129.142 29.6176 128.78 30.0079C128.418 30.3982 128.237 30.9018 128.237 31.5187C128.237 32.1356 128.42 32.6392 128.784 33.0296C129.148 33.4199 129.614 33.6151 130.182 33.6151ZM130.182 33.2548C129.836 33.2548 129.556 33.0971 129.343 32.7819C129.13 32.4666 129.023 32.0455 129.023 31.5187C129.023 30.9919 129.129 30.5709 129.341 30.2556C129.552 29.9403 129.833 29.7827 130.182 29.7827C130.532 29.7827 130.813 29.941 131.028 30.2577C131.242 30.5743 131.349 30.9946 131.349 31.5187C131.349 32.0483 131.243 32.47 131.03 32.7839C130.817 33.0978 130.534 33.2548 130.182 33.2548ZM134.366 33.5414V33.2384L133.887 33.1974L133.735 33.0623V27.3711H133.416L132.392 27.67V27.932H133.039V33.0623L132.896 33.1974L132.4 33.2384V33.5414H134.366ZM136.191 33.6233C136.39 33.6233 136.601 33.5782 136.823 33.4881C137.046 33.3981 137.288 33.2589 137.55 33.0705V33.5414H138.791V33.2384L138.398 33.1974L138.246 33.0623V29.4224H137.927L136.952 29.7336V29.9956H137.55V32.8371C137.375 32.9218 137.208 32.9845 137.048 33.0255C136.889 33.0664 136.731 33.0869 136.575 33.0869C136.297 33.0869 136.092 33.0152 135.961 32.8719C135.83 32.7286 135.765 32.5041 135.765 32.1984V29.4224H135.445L134.471 29.7336V29.9956H135.069V32.3417C135.069 32.7566 135.165 33.0739 135.357 33.2937C135.55 33.5134 135.828 33.6233 136.191 33.6233ZM140.354 33.5659C140.526 33.5659 140.704 33.5502 140.89 33.5189C141.076 33.4875 141.264 33.4417 141.455 33.3817V33.0705C141.351 33.0951 141.251 33.1128 141.154 33.1237C141.057 33.1347 140.964 33.1401 140.874 33.1401C140.611 33.1401 140.43 33.078 140.329 32.9538C140.228 32.8296 140.177 32.586 140.177 32.223V30.012H141.455V29.6189H140.177V28.7263H139.866L139.506 29.5084L138.953 29.7499V30.012H139.481V32.7184C139.481 33.0405 139.546 33.2623 139.676 33.3837C139.806 33.5052 140.031 33.5659 140.354 33.5659ZM142.555 28.5708C142.692 28.5708 142.807 28.5244 142.901 28.4315C142.995 28.3387 143.042 28.2255 143.042 28.0917C143.042 27.958 142.995 27.8433 142.901 27.7478C142.807 27.6522 142.692 27.6045 142.555 27.6045C142.421 27.6045 142.308 27.6516 142.213 27.7457C142.119 27.8399 142.072 27.9552 142.072 28.0917C142.072 28.2255 142.119 28.3387 142.213 28.4315C142.308 28.5244 142.421 28.5708 142.555 28.5708ZM143.444 33.5414V33.2384L142.993 33.1974L142.85 33.0623V29.4674H142.522L141.56 29.7663V30.0284H142.146V33.0623L142.002 33.1974L141.56 33.2384V33.5414H143.444ZM145.588 33.6151C146.156 33.6151 146.623 33.4192 146.99 33.0275C147.358 32.6358 147.541 32.1329 147.541 31.5187C147.541 30.9046 147.358 30.4016 146.993 30.0099C146.627 29.6182 146.159 29.4224 145.588 29.4224C145.015 29.4224 144.547 29.6176 144.186 30.0079C143.824 30.3982 143.643 30.9018 143.643 31.5187C143.643 32.1356 143.825 32.6392 144.19 33.0296C144.554 33.4199 145.02 33.6151 145.588 33.6151ZM145.588 33.2548C145.241 33.2548 144.962 33.0971 144.749 32.7819C144.536 32.4666 144.429 32.0455 144.429 31.5187C144.429 30.9919 144.535 30.5709 144.747 30.2556C144.958 29.9403 145.239 29.7827 145.588 29.7827C145.938 29.7827 146.219 29.941 146.434 30.2577C146.648 30.5743 146.755 30.9946 146.755 31.5187C146.755 32.0483 146.649 32.47 146.436 32.7839C146.223 33.0978 145.94 33.2548 145.588 33.2548ZM149.661 33.5414V33.2384L149.26 33.1974L149.116 33.0623V30.2536C149.297 30.1608 149.464 30.0918 149.62 30.0468C149.776 30.0018 149.92 29.9792 150.054 29.9792C150.36 29.9792 150.577 30.0447 150.707 30.1758C150.837 30.3068 150.902 30.5293 150.902 30.8432V33.0623L150.758 33.1974L150.357 33.2384V33.5414H152.191V33.2384L151.741 33.1974L151.598 33.0623V30.6999C151.598 30.285 151.501 29.9683 151.307 29.7499C151.113 29.5316 150.833 29.4224 150.468 29.4224C150.312 29.4224 150.132 29.4599 149.927 29.535C149.722 29.6101 149.452 29.7404 149.116 29.926V29.4674H148.797L147.823 29.7663V30.0284H148.42V33.0623L148.277 33.1974L147.823 33.2384V33.5414H149.661Z" fill="white"/>
<path fill-rule="evenodd" clip-rule="evenodd" d="M0.84082 0H35.7798V34.939H0.84082V0ZM26.8447 8.93476L9.77409 8.93293V26.0051L9.76843 26.0105L9.7686 26.0117H26.8525L26.8511 8.92869L26.8503 8.92854L26.8447 8.93476Z" fill="white"/>
</g>
</svg>
